<?xml version="1.0" standalone="no"?><!DOCTYPE svg PUBLIC "-//W3C//DTD SVG 1.1//EN" "http://www.w3.org/Graphics/SVG/1.1/DTD/svg11.dtd"><svg t="1581479058199" class="icon" viewBox="0 0 1024 1024" version="1.1" xmlns="http://www.w3.org/2000/svg" p-id="1499" xmlns:xlink="http://www.w3.org/1999/xlink" width="200" height="200"><defs><style type="text/css"></style></defs><path d="M585.808457 682.490149c-0.1024-6.724754-0.949394-13.920549-2.554148-21.587383-1.5872-7.581989-4.667977-14.625646-9.283292-21.192412-4.486583-6.385371-10.785646-11.809646-19.006903-16.277211-7.950629-4.32128-18.75968-6.572617-32.47104-6.572617-12.352366 0-22.310034 2.378606-30.009051 6.998308-7.870171 4.722103-14.14144 11.167451-18.901577 19.454537-5.00736 8.71424-8.762514 19.134171-11.230355 31.287589-2.543909 12.522057-4.017006 26.07104-4.410514 40.651337l-0.231131 8.54016H370.731886v-8.777143c0-24.492617 3.284114-47.270766 9.872823-68.309577 6.663314-21.281646 16.710217-39.756069 30.137782-55.348663 13.45536-15.62624 29.851063-27.896686 49.112503-36.768914 19.338971-8.9088 41.66656-13.331017 66.915475-13.331017 27.321783 0 50.414446 4.531931 69.23264 13.7216 18.600229 9.084343 33.753966 20.640914 45.374902 34.674103 11.544869 13.941029 19.754423 29.154743 24.576 45.595794 4.7104 16.051931 7.077303 31.441189 7.077303 46.158994 0 18.14528-2.829166 34.684343-8.522605 49.573303-5.60128 14.649051-13.151086 28.130743-22.636252 40.418743-9.331566 12.087589-19.929966 23.215543-31.787886 33.380937a466.870857 466.870857 0 0 1-36.119405 28.022492 968.133486 968.133486 0 0 1-33.316572 22.321737l-5.798765 3.690788c-11.227429 7.173851-21.644434 14.340389-31.249555 21.496686-9.970834 7.429851-18.633874 15.120091-25.997897 23.064869-3.579611 3.861943-6.546286 7.805806-8.911726 11.835977h203.729189v79.880777H362.687634l0.1024-8.87808c0.424229-37.013211 9.417874-69.56032 27.016046-97.459932 17.340709-27.491474 40.965851-51.34336 70.79936-71.538102a776.791771 776.791771 0 0 1 40.500663-27.804526l5.237028-3.344092c13.930789-8.974629 26.761509-18.572434 38.49216-28.789028 12.005669-10.456503 21.836069-21.732206 29.518995-33.83296 7.084617-11.158674 10.898286-23.987931 11.430765-38.651612l0.033646-1.050331-0.01024-1.255131z" fill="#91000A" p-id="1500"></path><path d="M443.431497 932.767451l3.449417-11.332754c3.254857-10.693486 9.23648-20.699429 17.846857-29.990034 8.115931-8.758126 17.580617-17.159314 28.383818-25.207954 9.910857-7.384503 20.626286-14.758766 32.131657-22.115475l5.961143-3.793188a950.390491 950.390491 0 0 0 32.694857-21.904823 449.316571 449.316571 0 0 0 34.760411-26.970697c10.953874-9.388617 20.722834-19.646171 29.315657-30.778515 8.43776-10.930469 15.146423-22.908343 20.136229-35.961417 4.899109-12.81024 7.365486-27.231086 7.365486-43.30496 0-12.982857-2.113829-26.719086-6.366355-41.218925-4.139886-14.112183-11.205486-27.209143-21.252388-39.339155-9.967909-12.037851-23.126309-22.071589-39.558583-30.096823-16.215771-7.918446-36.7104-11.941303-61.529234-11.941302-22.820571 0-42.655451 3.927771-59.570469 11.720411-16.994011 7.829211-31.35488 18.57536-43.154286 32.279406-11.830126 13.736229-20.724297 30.090971-26.689828 49.140297-5.256046 16.784823-8.231497 34.874514-8.916115 54.286628h52.307383c0.693394-12.38016 2.159177-24.090331 4.4032-35.131977 2.82624-13.919086 7.217737-26.106149 13.2096-36.537783 6.239086-10.860251 14.63296-19.485257 25.092389-25.762377 10.634971-6.37952 23.690971-9.499794 39.040731-9.499794 16.432274 0 30.06464 2.839406 40.853212 8.704 10.51648 5.71392 18.88256 12.917029 24.987063 21.6064 5.977234 8.505051 10.023497 17.75616 12.10368 27.690423 1.952914 9.330103 2.935954 18.177463 2.935954 26.545006l-0.002926 0.213577c-0.446171 18.256457-5.172663 34.579017-14.197028 48.790674-8.61184 13.565074-19.556937 26.119314-32.807498 37.661257-12.403566 10.801737-25.93792 20.923246-40.588434 30.354286l-5.207771 3.326537a762.047634 762.047634 0 0 0-36.7616 25.111406l-3.08224 2.255725-1.559406 1.060572c-27.270583 18.680686-48.749714 40.505051-64.512 65.49504-14.409143 22.842514-22.427063 49.269029-24.027429 79.418514h274.238903v-44.772206H443.431497zM842.908526 541.257143c32.299886 0 59.052617 7.533714 80.009508 22.756206 20.503406 14.891886 36.502674 33.917806 47.924663 56.978285 11.209874 22.6304 18.812343 47.443383 22.81472 74.40384 3.93216 26.489417 5.899703 52.175726 5.899703 77.057463s-1.967543 50.568046-5.899703 77.057463c-4.002377 26.960457-11.604846 51.771977-22.81472 74.40384-11.421989 23.06048-27.421257 42.0864-47.9232 56.978286-20.958354 15.221029-47.711086 22.756206-80.010971 22.756205s-59.052617-7.533714-80.010972-22.756205c-20.503406-14.891886-36.501211-33.917806-47.9232-56.978286-11.211337-22.631863-18.812343-47.443383-22.81472-74.40384-3.93216-26.489417-5.899703-52.175726-5.899703-77.057463s1.967543-50.568046 5.899703-77.057463c4.002377-26.960457 11.603383-51.771977 22.81472-74.405303 11.421989-23.059017 27.419794-42.084937 47.9232-56.976822C783.857371 548.790857 810.607177 541.257143 842.908526 541.257143z m0 17.554286c-28.803657 0-51.953371 6.519954-69.694903 19.4048-18.19648 13.216914-32.340846 30.038309-42.510629 50.566582-10.378971 20.955429-17.441646 44.007131-21.179245 69.190218-3.807817 25.6512-5.709531 50.477349-5.709532 74.479908 0 24.001097 1.901714 48.827246 5.709532 74.479909 3.7376 25.183086 10.800274 48.234789 21.180708 69.190217 10.166857 20.528274 24.312686 37.349669 42.510629 50.56512 17.740069 12.886309 40.889783 19.406263 69.69344 19.406263s51.953371-6.519954 69.69344-19.406263c18.197943-13.215451 32.343771-30.036846 42.510628-50.56512 10.378971-20.955429 17.443109-44.007131 21.180709-69.190217 3.807817-25.652663 5.709531-50.478811 5.709531-74.479909 0-24.00256-1.901714-48.828709-5.709531-74.479908-3.7376-25.183086-10.801737-48.234789-21.182172-69.190218-10.166857-20.528274-24.312686-37.349669-42.509165-50.566582C894.861897 565.331383 871.712183 558.811429 842.908526 558.811429z m0 40.494811c17.109577 0 31.777646 5.086354 43.607771 15.259063 11.326903 9.742629 20.178651 22.849829 26.584503 39.19872 6.189349 15.794469 10.535497 33.916343 13.064777 54.368548 2.489783 20.125989 3.733211 41.565623 3.733212 64.320366 0 22.751817-1.243429 44.289463-3.730286 64.6144-2.530743 20.670171-6.88128 38.806674-13.082332 54.418286-6.408777 16.132389-15.2576 29.125486-26.569874 38.853486-11.830126 10.174171-26.498194 15.260526-43.607771 15.260525-17.527954 0-32.324754-5.090743-43.979337-15.316114-11.07968-9.723611-19.801234-22.694766-26.199772-38.797897-6.199589-15.611611-10.548663-33.748114-13.079406-54.418286-2.489783-20.324937-3.731749-41.862583-3.731748-64.6144 0-22.754743 1.243429-44.194377 3.731748-64.320366 2.530743-20.450743 6.875429-38.575543 13.06624-54.368548 6.394149-16.318171 15.118629-29.404891 26.212938-39.140206 11.654583-10.226834 26.451383-15.317577 43.979337-15.317577z m0 17.554286c-13.431954 0-24.093257 3.667383-32.400823 10.9568-8.86784 7.7824-16.029989 18.52416-21.448412 32.351085-5.623223 14.350629-9.628526 31.056457-11.986651 50.118949-2.399086 19.388709-3.600091 40.111543-3.600091 62.165577 0 22.05696 1.201006 42.88512 3.601554 62.481554 2.356663 19.2512 6.35904 35.9424 11.97056 50.069212 5.41696 13.633829 12.580571 24.28928 21.46304 32.084846 8.306103 7.289417 18.968869 10.9568 32.400823 10.9568 13.034057 0 23.622217-3.671771 32.160914-11.015315 9.055086-7.788251 16.297691-18.420297 21.702949-32.026331 5.61152-14.125349 9.613897-30.816549 11.97056-50.069212 2.399086-19.596434 3.601554-40.424594 3.601554-62.481554 0-22.055497-1.201006-42.776869-3.600092-62.165577-2.358126-19.061029-6.363429-35.766857-11.988114-50.117486-5.40672-13.799131-12.644937-24.518949-21.686857-32.294034-8.538697-7.343543-19.126857-11.015314-32.160914-11.015314z" fill="#91000A" p-id="1501"></path><path d="M663.642697 986.3168H371.565714c0.406674-35.44064 8.961463-66.399086 25.664366-92.8768 16.70144-26.479177 39.511771-49.495771 68.435383-69.04832a767.720594 767.720594 0 0 1 40.164206-27.579246l3.219748-2.056777c15.07328-9.572937 28.922149-19.858286 41.550994-30.857508 12.628846-10.999223 23.015131-22.914194 31.163246-35.746378 8.148114-12.83072 12.424046-27.598263 12.832183-44.299702 0-7.739977-0.917211-15.989029-2.750171-24.747155-1.83296-8.758126-5.397943-16.904777-10.693486-24.441417-5.295543-7.53664-12.627383-13.850331-21.996983-18.942537-9.3696-5.090743-21.590309-7.637577-36.662126-7.637577-13.850331 0-25.358629 2.750171-34.523428 8.249051-9.166263 5.500343-16.499566 13.034057-21.998446 22.608457-5.500343 9.572937-9.572937 20.876434-12.220709 33.911955-2.647771 13.03552-4.174994 27.089189-4.583131 42.162468H379.509029c0-23.626606 3.156846-45.522651 9.472-65.686674 6.313691-20.165486 15.784229-37.579337 28.413074-52.24448 12.627383-14.665143 28.004937-26.171977 46.132663-34.523429 18.127726-8.351451 39.20896-12.526446 63.243703-12.526445 26.07104 0 47.864686 4.277394 65.380937 12.832183 17.516251 8.554789 31.670857 19.349211 42.466743 32.384731 10.795886 13.03552 18.432 27.191589 22.914194 42.466743 4.480731 15.276617 6.721829 29.83936 6.721828 43.689691 0 17.109577-2.647771 32.589531-7.943314 46.439863-5.295543 13.850331-12.425509 26.580114-21.386971 38.189349-8.961463 11.609234-19.145874 22.30272-30.551772 32.080457a458.093714 458.093714 0 0 1-35.44064 27.495863 959.163246 959.163246 0 0 1-32.996205 22.10816l-3.66592 2.333257c-12.220709 7.739977-23.525669 15.479954-33.913418 23.219931-10.386286 7.738514-19.450149 15.784229-27.190125 24.137143-7.739977 8.349989-13.03552 17.209051-15.886629 26.580114h208.36352v62.325029z" fill="#D8000F" p-id="1502"></path><path d="M663.642697 965.735863v20.580937H371.565714c0.080457-7.036343 0.482743-13.897143 1.206857-20.580937h290.870126z" fill="#FFE400" p-id="1503"></path><path d="M581.474011 635.12576c5.789989 4.110629 10.558903 8.831269 14.306743 14.166309 5.295543 7.53664 8.860526 15.681829 10.693486 24.441417 1.83296 8.758126 2.750171 17.007177 2.750171 24.747154-0.408137 16.70144-4.685531 31.468983-12.832182 44.299703-8.148114 12.832183-18.5344 24.747154-31.163246 35.746377-12.628846 10.999223-26.477714 21.284571-41.550994 30.857509l-3.219749 2.056777a767.720594 767.720594 0 0 0-40.164206 27.579245c-28.922149 19.552549-51.733943 42.569143-68.435383 69.046858-14.362331 22.769371-22.700617 48.852114-25.014857 78.248228H371.565714c0.406674-35.439177 8.961463-66.399086 25.664366-92.8768 16.70144-26.477714 39.511771-49.494309 68.435383-69.046857a767.720594 767.720594 0 0 1 40.164206-27.579246l3.219748-2.056777c15.07328-9.572937 28.922149-19.858286 41.550994-30.857508 12.628846-10.999223 23.015131-22.914194 31.163246-35.746378 8.148114-12.83072 12.424046-27.598263 12.832183-44.299702 0-7.739977-0.917211-15.989029-2.750171-24.747155-1.762743-8.421669-5.125851-16.277211-10.089326-23.569554z m82.168686 288.864549v14.628571H469.906286c1.528686-5.021989 3.759543-9.899154 6.694034-14.628571h187.042377zM526.770469 550.034286c26.07104 0 47.864686 4.277394 65.380937 12.832183 17.516251 8.554789 31.670857 19.349211 42.466743 32.384731l0.03072 0.036571c-8.082286-6.736457-17.372891-12.66688-27.868892-17.792731-17.516251-8.554789-39.309897-12.832183-65.380937-12.832183-24.034743 0-45.114514 4.174994-63.243703 12.526446-18.127726 8.351451-33.50528 19.858286-46.132663 34.523428-12.628846 14.665143-22.099383 32.080457-28.413074 52.24448-4.991269 15.936366-8.009143 32.955246-9.055086 51.05664H379.509029c0-23.625143 3.156846-45.521189 9.472-65.685211 6.313691-20.165486 15.784229-37.579337 28.413074-52.24448 12.627383-14.665143 28.004937-26.171977 46.132663-34.523429 18.127726-8.351451 39.20896-12.526446 63.243703-12.526445z" fill="#C40714" p-id="1504"></path><path d="M842.908526 550.034286c30.551771 0 55.502263 7.027566 74.851474 21.079771 19.350674 14.055131 34.422491 31.978057 45.216914 53.773166 10.795886 21.793646 18.127726 45.725989 21.998446 71.797028 3.869257 26.07104 5.804617 51.327269 5.804617 75.768686s-1.93536 49.697646-5.804617 75.768686c-3.87072 26.07104-11.20256 50.003383-21.998446 71.797028-10.794423 21.793646-25.86624 39.716571-45.216914 53.771703-19.349211 14.053669-44.299703 21.079771-74.851474 21.079772-30.551771 0-55.502263-7.026103-74.852937-21.079772-19.349211-14.053669-34.421029-31.978057-45.216915-53.771703-10.795886-21.793646-18.127726-45.725989-21.996983-71.797028-3.87072-26.07104-5.804617-51.327269-5.804617-75.768686s1.933897-49.697646 5.804617-75.768686c3.869257-26.07104 11.20256-50.003383 21.996983-71.797028 10.795886-21.795109 25.867703-39.718034 45.216915-53.771703C787.406263 557.061851 812.356754 550.034286 842.908526 550.034286z m0 58.049097c-15.479954 0-28.209737 4.378331-38.190812 13.136457-9.979611 8.759589-17.922926 20.67456-23.829943 35.746377-5.907017 15.071817-10.082011 32.487131-12.526445 52.24448-2.442971 19.755886-3.66592 40.83712-3.66592 63.24224 0 22.40512 1.221486 43.587291 3.66592 63.547977 2.442971 19.960686 6.619429 37.376 12.526445 52.24448 5.907017 14.86848 13.850331 26.682514 23.829943 35.439177 9.981074 8.758126 22.710857 13.13792 38.190812 13.13792 15.071817 0 27.700663-4.379794 37.883611-13.136457 10.184411-8.759589 18.230126-20.57216 24.137143-35.44064 5.907017-14.869943 10.082011-32.283794 12.526446-52.24448 2.442971-19.960686 3.66592-41.142857 3.66592-63.547977 0-22.40512-1.222949-43.486354-3.66592-63.24224-2.444434-19.757349-6.619429-37.1712-12.526446-52.24448-5.907017-15.071817-13.952731-26.986789-24.137143-35.746377-10.182949-8.758126-22.811794-13.136457-37.883611-13.136457z" fill="#D8000F" p-id="1505"></path><path d="M842.908526 550.034286c30.551771 0 55.502263 7.027566 74.851474 21.079771 9.135543 6.63552 17.317303 14.134126 24.546743 22.494354a148.59264 148.59264 0 0 0-9.918172-7.86432C913.03936 571.690423 888.088869 564.662857 857.537097 564.662857c-30.551771 0-55.502263 7.027566-74.852937 21.079772-19.349211 14.055131-34.421029 31.978057-45.216914 53.773165-10.795886 21.793646-18.127726 45.725989-21.996983 71.797029-3.87072 26.07104-5.804617 51.327269-5.804617 75.768686s1.933897 49.697646 5.804617 75.768685c3.869257 26.07104 11.20256 50.003383 21.996983 71.797029 5.697829 11.503909 12.587886 21.928229 20.670171 31.275886-14.657829-12.684434-26.423589-27.987383-35.298743-45.904458-10.795886-21.793646-18.127726-45.725989-21.996983-71.797028-3.87072-26.07104-5.804617-51.327269-5.804617-75.768686s1.933897-49.697646 5.804617-75.768686c3.869257-26.07104 11.20256-50.003383 21.996983-71.797028 10.795886-21.795109 25.867703-39.718034 45.216915-53.771703C787.406263 557.061851 812.356754 550.034286 842.908526 550.034286z m48.881371 82.952777a53.833143 53.833143 0 0 1 3.630812 2.861348c10.184411 8.759589 18.230126 20.67456 24.137142 35.746378s10.082011 32.487131 12.526446 52.24448c2.442971 19.755886 3.66592 40.83712 3.66592 63.24224 0 22.40512-1.222949 43.587291-3.66592 63.547977-2.444434 19.960686-6.619429 37.376-12.526446 52.24448-5.907017 14.86848-13.952731 26.682514-24.137142 35.439177-10.182949 8.758126-22.811794 13.13792-37.883612 13.13792-15.479954 0-28.209737-4.379794-38.190811-13.136457-3.826834-3.360183-7.355246-7.168-10.583772-11.426377 9.302309 6.622354 20.6848 9.934263 34.146012 9.934262 15.071817 0 27.700663-4.379794 37.883611-13.136457 10.184411-8.759589 18.230126-20.57216 24.137143-35.44064 5.907017-14.869943 10.082011-32.283794 12.526446-52.24448 2.442971-19.960686 3.66592-41.142857 3.66592-63.547977 0-22.40512-1.222949-43.486354-3.66592-63.24224-2.444434-19.757349-6.619429-37.1712-12.526446-52.24448-3.516709-8.971703-7.789714-16.82432-12.821943-23.559314z" fill="#C40714" p-id="1506"></path><path d="M857.766766 935.22944v59.052617c-4.795246 0.392046-9.74848 0.589531-14.85824 0.589532-2.900846 0-5.749029-0.064366-8.548937-0.190172V936.3456c2.750171 0.31744 5.599817 0.476891 8.548937 0.476891 5.248731 0 10.201966-0.531017 14.85824-1.594514zM842.908526 550.034286c5.10976 0 10.062994 0.196023 14.859703 0.589531v59.052617c-4.657737-1.062034-9.610971-1.594514-14.859703-1.594514-2.94912 0-5.798766 0.160914-8.548937 0.478354V550.224457c2.799909-0.127269 5.648091-0.190171 8.548937-0.190171z" fill="#FFE400" p-id="1507"></path><path d="M857.766766 935.22944v16.221623h-0.229669c-8.567954 0-16.294766-1.34144-23.177508-4.02432v-11.081143a74.415543 74.415543 0 0 0 8.548937 0.476891c5.248731 0 10.201966-0.531017 14.85824-1.594514zM842.908526 550.034286c5.10976 0 10.062994 0.196023 14.859703 0.589531V564.662857h-0.231132c-8.121783 0-15.848594 0.497371-23.177508 1.489189V550.224457c2.798446-0.127269 5.648091-0.190171 8.548937-0.190171zM386.845257 986.3168H371.565714c0.080457-7.036343 0.482743-13.897143 1.206857-20.580937h16.776046a195.01056 195.01056 0 0 0-2.70336 20.580937z" fill="#FFA700" p-id="1508"></path><path d="M247.989394 163.175863c-0.1024-6.724754-0.949394-13.920549-2.552685-21.587383-1.5872-7.581989-4.66944-14.625646-9.284755-21.192411-4.48512-6.385371-10.784183-11.809646-19.006903-16.277212-7.950629-4.32128-18.758217-6.572617-32.47104-6.572617-12.352366 0-22.308571 2.378606-30.007588 6.998309-7.870171 4.722103-14.142903 11.167451-18.90304 19.454537-5.005897 8.71424-8.762514 19.134171-11.230354 31.287588-2.542446 12.522057-4.015543 26.07104-4.410515 40.651337l-0.229668 8.54016H32.914286v-8.777142c0-24.492617 3.284114-47.270766 9.87136-68.309578 6.663314-21.281646 16.71168-39.756069 30.137783-55.348662 13.456823-15.62624 29.852526-27.896686 49.112502-36.768915C141.374903 26.365074 163.703954 21.942857 188.951406 21.942857c27.323246 0 50.415909 4.531931 69.23264 13.7216 18.600229 9.084343 33.753966 20.640914 45.376365 34.674103 11.543406 13.941029 19.75296 29.154743 24.576 45.595794 4.708937 16.051931 7.07584 31.441189 7.07584 46.158995 0 18.14528-2.829166 34.684343-8.522605 49.573302-5.599817 14.649051-13.151086 28.130743-22.636252 40.418743-9.330103 12.087589-19.929966 23.215543-31.787885 33.380937a466.870857 466.870857 0 0 1-36.117943 28.022492 968.133486 968.133486 0 0 1-33.316572 22.321737l-5.798765 3.690789c-11.228891 7.173851-21.645897 14.340389-31.249555 21.496685-9.972297 7.429851-18.6368 15.120091-25.997897 23.064869-3.581074 3.861943-6.546286 7.805806-8.913188 11.835977h203.729188v79.880777H24.868571l0.1024-8.87808c0.424229-37.013211 9.417874-69.56032 27.016046-97.459931 17.340709-27.491474 40.965851-51.34336 70.79936-71.538103a776.791771 776.791771 0 0 1 40.500663-27.804526l5.237029-3.344091c13.932251-8.974629 26.761509-18.572434 38.493622-28.789029 12.004206-10.456503 21.834606-21.732206 29.517532-33.83296 7.084617-11.158674 10.898286-23.987931 11.432228-38.651611l0.032183-1.050332-0.01024-1.255131z" fill="#91000A" p-id="1509"></path><path d="M105.613897 413.453166l3.449417-11.332755c3.253394-10.693486 9.235017-20.699429 17.846857-29.990034 8.115931-8.758126 17.579154-17.159314 28.383818-25.207954 9.909394-7.384503 20.624823-14.758766 32.131657-22.115474l5.95968-3.793189a950.390491 950.390491 0 0 0 32.694857-21.904823 449.316571 449.316571 0 0 0 34.760411-26.970697c10.953874-9.388617 20.722834-19.646171 29.315657-30.778514 8.43776-10.930469 15.146423-22.908343 20.137692-35.961417 4.897646-12.81024 7.364023-27.231086 7.364023-43.30496 0-12.982857-2.113829-26.719086-6.366355-41.218926-4.139886-14.112183-11.205486-27.209143-21.252388-39.339154-9.967909-12.037851-23.124846-22.071589-39.558583-30.096823C234.264869 43.52 213.77024 39.497143 188.951406 39.497143c-22.820571 0-42.653989 3.927771-59.570469 11.720411-16.994011 7.829211-31.353417 18.57536-43.154286 32.279406-11.830126 13.736229-20.724297 30.090971-26.688365 49.140297-5.256046 16.784823-8.23296 34.874514-8.917577 54.286629h52.307382c0.693394-12.38016 2.159177-24.090331 4.4032-35.131977 2.82624-13.919086 7.2192-26.106149 13.2096-36.537783 6.240549-10.860251 14.63296-19.485257 25.093852-25.762377 10.633509-6.37952 23.690971-9.499794 39.039268-9.499795 16.432274 0 30.066103 2.839406 40.853212 8.704 10.517943 5.71392 18.88256 12.917029 24.988526 21.6064 5.975771 8.505051 10.023497 17.75616 12.102217 27.690423 1.952914 9.330103 2.935954 18.177463 2.935954 26.545006l-0.002926 0.213577c-0.444709 18.256457-5.172663 34.579017-14.197028 48.790674-8.61184 13.565074-19.556937 26.119314-32.807497 37.661257-12.402103 10.801737-25.936457 20.923246-40.586972 30.354286l-5.207771 3.326537a762.047634 762.047634 0 0 0-36.7616 25.111406l-3.083703 2.255726-1.559406 1.060571c-27.26912 18.680686-48.749714 40.505051-64.512 65.49504-14.409143 22.842514-22.4256 49.269029-24.027428 79.418514h274.238902v-44.772205H105.613897zM505.089463 21.942857c32.299886 0 59.052617 7.533714 80.010971 22.756206 20.503406 14.891886 36.501211 33.917806 47.9232 56.978286 11.211337 22.6304 18.812343 47.443383 22.81472 74.40384 3.93216 26.489417 5.899703 52.175726 5.899703 77.057462s-1.967543 50.568046-5.899703 77.057463c-4.000914 26.960457-11.603383 51.771977-22.81472 74.40384-11.421989 23.06048-27.419794 42.0864-47.9232 56.978286-20.958354 15.221029-47.709623 22.756206-80.010971 22.756206-32.299886 0-59.052617-7.533714-80.009509-22.756206-20.503406-14.891886-36.502674-33.917806-47.924663-56.978286-11.209874-22.631863-18.812343-47.443383-22.81472-74.40384-3.93216-26.489417-5.899703-52.175726-5.899702-77.057463s1.967543-50.568046 5.899702-77.057462c4.002377-26.960457 11.604846-51.771977 22.81472-74.405303 11.421989-23.059017 27.421257-42.084937 47.9232-56.976823C446.038309 29.476571 472.79104 21.942857 505.090926 21.942857z m0 17.554286c-28.803657 0-51.953371 6.519954-69.69344 19.4048-18.197943 13.216914-32.343771 30.038309-42.510629 50.566583-10.378971 20.955429-17.441646 44.007131-21.180708 69.190217-3.807817 25.6512-5.709531 50.477349-5.709532 74.479908 0 24.001097 1.901714 48.827246 5.709532 74.479909 3.739063 25.183086 10.801737 48.234789 21.182171 69.190217 10.166857 20.528274 24.312686 37.349669 42.509166 50.56512 17.740069 12.886309 40.889783 19.406263 69.69344 19.406263s51.953371-6.519954 69.694903-19.406263c18.19648-13.215451 32.342309-30.036846 42.510628-50.56512 10.378971-20.955429 17.441646-44.007131 21.179246-69.190217 3.807817-25.652663 5.709531-50.478811 5.709531-74.479909 0-24.00256-1.901714-48.828709-5.709531-74.479908-3.7376-25.183086-10.800274-48.234789-21.180709-69.190217-10.166857-20.528274-24.312686-37.349669-42.510628-50.566583C557.044297 46.017097 533.894583 39.497143 505.090926 39.497143z m0 40.494811c17.11104 0 31.777646 5.086354 43.607771 15.259063 11.326903 9.742629 20.178651 22.849829 26.584503 39.19872 6.190811 15.794469 10.535497 33.916343 13.06624 54.368549 2.489783 20.125989 3.731749 41.565623 3.731749 64.320365 0 22.751817-1.243429 44.289463-3.730286 64.6144-2.530743 20.670171-6.879817 38.806674-13.082331 54.418286-6.407314 16.132389-15.2576 29.125486-26.569875 38.853486-11.830126 10.174171-26.496731 15.260526-43.607771 15.260526-17.527954 0-32.324754-5.090743-43.979337-15.316115-11.078217-9.723611-19.801234-22.694766-26.198309-38.797897-6.202514-15.611611-10.550126-33.748114-13.080868-54.418286-2.48832-20.324937-3.730286-41.862583-3.730286-64.6144 0-22.754743 1.241966-44.194377 3.730286-64.320365 2.530743-20.450743 6.875429-38.575543 13.06624-54.368549 6.395611-16.318171 15.120091-29.404891 26.2144-39.140206 11.65312-10.226834 26.44992-15.317577 43.977874-15.317577z m0 17.554286c-13.431954 0-24.093257 3.667383-32.400823 10.9568-8.866377 7.7824-16.028526 18.52416-21.446949 32.351086-5.624686 14.350629-9.629989 31.056457-11.988114 50.118948-2.399086 19.388709-3.598629 40.111543-3.598628 62.165577 0 22.05696 1.199543 42.88512 3.600091 62.481555 2.358126 19.2512 6.35904 35.9424 11.97056 50.069211 5.41696 13.633829 12.580571 24.28928 21.46304 32.084846 8.307566 7.289417 18.968869 10.9568 32.402286 10.9568 13.034057 0 23.622217-3.671771 32.160914-11.015314 9.055086-7.788251 16.296229-18.420297 21.701486-32.026332 5.61152-14.125349 9.613897-30.816549 11.97056-50.069211 2.399086-19.596434 3.601554-40.424594 3.601554-62.481555 0-22.055497-1.201006-42.776869-3.598629-62.165577-2.359589-19.061029-6.363429-35.766857-11.988114-50.117485-5.408183-13.799131-12.6464-24.518949-21.686857-32.294035-8.538697-7.343543-19.126857-11.015314-32.162377-11.015314z" fill="#91000A" p-id="1510"></path><path d="M325.823634 467.002514H33.748114c0.408137-35.44064 8.962926-66.399086 25.664366-92.8768 16.70144-26.479177 39.513234-49.495771 68.436846-69.04832a767.720594 767.720594 0 0 1 40.162743-27.579245l3.221211-2.056778c15.071817-9.572937 28.920686-19.858286 41.549531-30.857508 12.628846-10.999223 23.016594-22.914194 31.163246-35.746377 8.148114-12.83072 12.424046-27.598263 12.832183-44.299703 0-7.739977-0.917211-15.989029-2.750171-24.747154-1.83296-8.758126-5.397943-16.904777-10.693486-24.441418-5.295543-7.53664-12.627383-13.850331-21.996983-18.942537-9.3696-5.090743-21.590309-7.637577-36.662126-7.637577-13.850331 0-25.358629 2.750171-34.523428 8.249052-9.166263 5.500343-16.498103 13.034057-21.998446 22.608457-5.49888 9.572937-9.572937 20.876434-12.220709 33.911954-2.647771 13.03552-4.174994 27.089189-4.581668 42.162469H41.691429c0-23.626606 3.156846-45.522651 9.470537-65.686675 6.313691-20.165486 15.784229-37.579337 28.413074-52.24448 12.628846-14.665143 28.0064-26.171977 46.134126-34.523428C143.836891 34.894994 164.916663 30.72 188.951406 30.72c26.07104 0 47.864686 4.277394 65.380937 12.832183 17.516251 8.554789 31.67232 19.349211 42.466743 32.384731 10.795886 13.03552 18.433463 27.191589 22.914194 42.466743 4.482194 15.276617 6.721829 29.83936 6.721829 43.689692 0 17.109577-2.647771 32.589531-7.943315 46.439862-5.295543 13.850331-12.424046 26.580114-21.386971 38.189349-8.961463 11.609234-19.145874 22.30272-30.551772 32.080457a458.093714 458.093714 0 0 1-35.44064 27.495863 959.163246 959.163246 0 0 1-32.996205 22.10816l-3.66592 2.333257c-12.220709 7.739977-23.524206 15.479954-33.911955 23.219932-10.387749 7.738514-19.451611 15.784229-27.191588 24.137142-7.739977 8.349989-13.03552 17.209051-15.886629 26.580115H325.822171v62.325028z" fill="#D8000F" p-id="1511"></path><path d="M325.823634 446.421577v20.580937H33.748114c0.08192-7.036343 0.482743-13.897143 1.206857-20.580937H325.822171z" fill="#FFE400" p-id="1512"></path><path d="M243.654949 115.811474c5.789989 4.110629 10.558903 8.831269 14.306742 14.166309 5.295543 7.53664 8.860526 15.681829 10.693486 24.441417 1.83296 8.758126 2.750171 17.007177 2.750172 24.747154-0.408137 16.70144-4.684069 31.468983-12.832183 44.299703-8.148114 12.832183-18.5344 24.747154-31.163246 35.746377-12.627383 10.999223-26.477714 21.284571-41.549531 30.857509l-3.221212 2.056777a767.720594 767.720594 0 0 0-40.162743 27.579246c-28.923611 19.552549-51.735406 42.569143-68.436845 69.046857-14.362331 22.769371-22.700617 48.852114-25.013395 78.248228H33.748114c0.408137-35.439177 8.962926-66.399086 25.664366-92.8768 16.70144-26.477714 39.513234-49.494309 68.436846-69.046857a767.720594 767.720594 0 0 1 40.162743-27.579245l3.221211-2.056778c15.071817-9.572937 28.920686-19.858286 41.549531-30.857508 12.628846-10.999223 23.016594-22.914194 31.163246-35.746377 8.148114-12.83072 12.424046-27.598263 12.832183-44.299703 0-7.739977-0.917211-15.989029-2.750171-24.747154-1.762743-8.421669-5.125851-16.277211-10.089326-23.569555z m82.168685 288.864549v14.628571H132.088686c1.528686-5.021989 3.759543-9.899154 6.692571-14.628571H325.822171zM188.951406 30.72c26.07104 0 47.864686 4.277394 65.380937 12.832183 17.516251 8.554789 31.67232 19.349211 42.466743 32.384731l0.032183 0.036572c-8.083749-6.736457-17.372891-12.66688-27.870355-17.792732C251.444663 49.625966 229.651017 45.348571 203.579977 45.348571c-24.034743 0-45.114514 4.174994-63.24224 12.526446-18.127726 8.351451-33.50528 19.858286-46.134126 34.523429-12.627383 14.665143-22.099383 32.080457-28.413074 52.24448-4.991269 15.936366-8.009143 32.955246-9.055086 51.05664H41.691429c0-23.625143 3.156846-45.521189 9.470537-65.685212 6.313691-20.165486 15.784229-37.579337 28.413074-52.24448 12.628846-14.665143 28.0064-26.171977 46.134126-34.523428C143.836891 34.894994 164.916663 30.72 188.951406 30.72z" fill="#C40714" p-id="1513"></path><path d="M505.089463 30.72c30.551771 0 55.503726 7.027566 74.852937 21.079771 19.349211 14.055131 34.421029 31.978057 45.216914 53.773166 10.795886 21.793646 18.127726 45.725989 21.996983 71.797029 3.87072 26.07104 5.804617 51.327269 5.804617 75.768685s-1.933897 49.697646-5.804617 75.768686c-3.869257 26.07104-11.20256 50.003383-21.996983 71.797029-10.795886 21.793646-25.867703 39.716571-45.216914 53.771703-19.349211 14.053669-44.301166 21.079771-74.852937 21.079771-30.551771 0-55.502263-7.026103-74.851474-21.079771-19.350674-14.053669-34.422491-31.978057-45.216915-53.771703-10.795886-21.793646-18.127726-45.725989-21.998445-71.797029-3.869257-26.07104-5.804617-51.327269-5.804618-75.768686s1.93536-49.697646 5.804618-75.768685c3.87072-26.07104 11.20256-50.003383 21.998445-71.797029 10.794423-21.795109 25.86624-39.718034 45.216915-53.771703C449.5872 37.747566 474.536229 30.72 505.089463 30.72z m0 58.049097c-15.479954 0-28.209737 4.378331-38.189349 13.136457-9.981074 8.759589-17.924389 20.67456-23.829943 35.746377-5.907017 15.071817-10.083474 32.487131-12.527908 52.24448-2.442971 19.755886-3.66592 40.83712-3.66592 63.24224 0 22.40512 1.222949 43.587291 3.66592 63.547978 2.444434 19.960686 6.620891 37.376 12.526446 52.24448 5.907017 14.86848 13.850331 26.682514 23.829942 35.439177 9.981074 8.758126 22.710857 13.13792 38.190812 13.13792 15.07328 0 27.700663-4.379794 37.885074-13.136457 10.184411-8.759589 18.228663-20.57216 24.137143-35.44064 5.905554-14.869943 10.080549-32.283794 12.524983-52.24448 2.442971-19.960686 3.66592-41.142857 3.66592-63.547978 0-22.40512-1.221486-43.486354-3.66592-63.24224-2.442971-19.757349-6.619429-37.1712-12.526446-52.24448-5.907017-15.071817-13.951269-26.986789-24.137143-35.746377-10.181486-8.758126-22.810331-13.136457-37.883611-13.136457z" fill="#D8000F" p-id="1514"></path><path d="M505.089463 30.72c30.551771 0 55.503726 7.027566 74.852937 21.079771 9.135543 6.63552 17.317303 14.134126 24.54528 22.494355a148.59264 148.59264 0 0 0-9.918171-7.86432C575.223223 52.376137 550.271269 45.348571 519.719497 45.348571c-30.551771 0-55.502263 7.027566-74.851474 21.079772-19.350674 14.055131-34.422491 31.978057-45.216914 53.773166-10.795886 21.793646-18.127726 45.725989-21.998446 71.797028-3.869257 26.07104-5.804617 51.327269-5.804617 75.768686s1.93536 49.697646 5.804617 75.768686c3.87072 26.07104 11.20256 50.003383 21.998446 71.797028 5.697829 11.503909 12.586423 21.928229 20.668708 31.275886-14.657829-12.684434-26.423589-27.987383-35.298743-45.904457-10.794423-21.793646-18.126263-45.725989-21.996983-71.797029-3.869257-26.07104-5.804617-51.327269-5.804617-75.768686s1.93536-49.697646 5.804617-75.768685c3.87072-26.07104 11.20256-50.003383 21.998446-71.797029 10.794423-21.795109 25.86624-39.718034 45.216914-53.771703C449.5872 37.747566 474.536229 30.72 505.089463 30.72z m48.882834 82.952777a53.833143 53.833143 0 0 1 3.630812 2.861349c10.184411 8.759589 18.228663 20.67456 24.137142 35.746377 5.905554 15.071817 10.080549 32.487131 12.524983 52.24448 2.442971 19.755886 3.66592 40.83712 3.66592 63.24224 0 22.40512-1.221486 43.587291-3.66592 63.547977-2.442971 19.960686-6.619429 37.376-12.526445 52.24448-5.907017 14.86848-13.951269 26.682514-24.137143 35.439177-10.181486 8.758126-22.810331 13.13792-37.883612 13.13792-15.479954 0-28.209737-4.379794-38.189348-13.136457-3.828297-3.360183-7.356709-7.168-10.585235-11.426377 9.303771 6.622354 20.6848 9.934263 34.146012 9.934263 15.07328 0 27.700663-4.379794 37.885074-13.136457 10.184411-8.759589 18.228663-20.57216 24.137143-35.44064 5.905554-14.869943 10.080549-32.283794 12.524983-52.24448 2.442971-19.960686 3.66592-41.142857 3.66592-63.547978 0-22.40512-1.221486-43.486354-3.66592-63.24224-2.442971-19.757349-6.619429-37.1712-12.526446-52.24448-3.515246-8.971703-7.789714-16.82432-12.82048-23.559314z" fill="#C40714" p-id="1515"></path><path d="M519.950629 415.913691v59.05408c-4.798171 0.392046-9.751406 0.589531-14.861166 0.589532-2.899383 0-5.749029-0.064366-8.547474-0.190172V417.031314c2.750171 0.31744 5.598354 0.476891 8.547474 0.476892 5.251657 0 10.203429-0.531017 14.861166-1.594515zM505.089463 30.72c5.10976 0 10.064457 0.196023 14.859703 0.589531v59.052618c-4.656274-1.062034-9.609509-1.594514-14.859703-1.594515-2.94912 0-5.798766 0.160914-8.548937 0.478355V30.910171c2.799909-0.127269 5.649554-0.190171 8.548937-0.190171z" fill="#FFE400" p-id="1516"></path><path d="M519.949166 415.915154v16.221623h-0.231132c-8.567954 0-16.293303-1.34144-23.177508-4.02432v-11.081143a74.415543 74.415543 0 0 0 8.548937 0.476892c5.250194 0 10.203429-0.531017 14.859703-1.594515zM505.089463 30.72c5.10976 0 10.064457 0.196023 14.859703 0.589531V45.348571h-0.231132c-8.121783 0-15.847131 0.497371-23.177508 1.489189V30.910171c2.799909-0.127269 5.649554-0.190171 8.548937-0.190171zM49.026194 467.002514H33.748114c0.08192-7.036343 0.482743-13.897143 1.206857-20.580937h16.777509a195.01056 195.01056 0 0 0-2.704823 20.580937z" fill="#FFA700" p-id="1517"></path></svg>